<svg xmlns="http://www.w3.org/2000/svg" xmlns:xlink="http://www.w3.org/1999/xlink" width="1080" zoomAndPan="magnify" viewBox="0 0 810 809.999993" height="1080" preserveAspectRatio="xMidYMid meet" version="1.0"><defs><clipPath id="e5c6bac9f2"><path d="M 72.859375 138 L 145 138 L 145 160 L 72.859375 160 Z M 72.859375 138 " clip-rule="nonzero"/></clipPath><clipPath id="e1c245af1f"><path d="M 121 113.285156 L 134 113.285156 L 134 148 L 121 148 Z M 121 113.285156 " clip-rule="nonzero"/></clipPath><clipPath id="e9f36f0fb2"><path d="M 82 638.589844 L 737.355469 638.589844 L 737.355469 662.167969 L 82 662.167969 Z M 82 638.589844 " clip-rule="nonzero"/></clipPath></defs><path fill="#ffa664" d="M 184.554688 643.777344 L 171.253906 643.777344 L 163.898438 524.648438 C 163.265625 514.390625 158.175781 504.921875 149.964844 498.734375 C 143.824219 494.105469 135 498.152344 134.503906 505.824219 L 125.578125 643.777344 L 114.636719 643.777344 L 104.609375 459.691406 L 104.609375 140.09375 L 144.582031 140.09375 L 144.582031 431.730469 L 164.9375 443.675781 C 177.09375 450.808594 184.554688 463.84375 184.554688 477.933594 L 184.554688 643.777344 " fill-opacity="1" fill-rule="nonzero"/><g clip-path="url(#e5c6bac9f2)"><path fill="#ffa664" d="M 144.582031 159.609375 L 83.617188 159.609375 C 77.675781 159.609375 72.859375 154.792969 72.859375 148.851562 C 72.859375 142.910156 77.675781 138.09375 83.617188 138.09375 L 144.582031 138.09375 L 144.582031 159.609375 " fill-opacity="1" fill-rule="nonzero"/></g><g clip-path="url(#e1c245af1f)"><path fill="#ffa664" d="M 127.558594 147.765625 C 124.097656 147.765625 121.292969 144.960938 121.292969 141.5 L 121.292969 119.984375 C 121.292969 116.523438 124.097656 113.71875 127.558594 113.71875 C 131.019531 113.71875 133.824219 116.523438 133.824219 119.984375 L 133.824219 141.5 C 133.824219 144.960938 131.019531 147.765625 127.558594 147.765625 " fill-opacity="1" fill-rule="nonzero"/></g><path fill="#ffa664" d="M 135.640625 151.140625 C 132.46875 149.753906 131.027344 146.058594 132.417969 142.890625 L 141.054688 123.183594 C 142.445312 120.015625 146.140625 118.574219 149.308594 119.964844 C 152.480469 121.351562 153.921875 125.046875 152.535156 128.21875 L 143.894531 147.921875 C 142.503906 151.089844 138.808594 152.53125 135.640625 151.140625 " fill-opacity="1" fill-rule="nonzero"/><path fill="#d67b3e" d="M 104.609375 193.816406 L 122.53125 193.816406 L 122.53125 197.820312 L 104.609375 197.820312 L 104.609375 193.816406 " fill-opacity="1" fill-rule="nonzero"/><path fill="#d67b3e" d="M 104.609375 228.023438 L 122.53125 228.023438 L 122.53125 232.027344 L 104.609375 232.027344 L 104.609375 228.023438 " fill-opacity="1" fill-rule="nonzero"/><path fill="#d67b3e" d="M 104.609375 262.230469 L 122.53125 262.230469 L 122.53125 266.238281 L 104.609375 266.238281 L 104.609375 262.230469 " fill-opacity="1" fill-rule="nonzero"/><path fill="#d67b3e" d="M 104.609375 296.441406 L 122.53125 296.441406 L 122.53125 300.445312 L 104.609375 300.445312 L 104.609375 296.441406 " fill-opacity="1" fill-rule="nonzero"/><path fill="#d67b3e" d="M 104.609375 330.648438 L 122.53125 330.648438 L 122.53125 334.65625 L 104.609375 334.65625 L 104.609375 330.648438 " fill-opacity="1" fill-rule="nonzero"/><path fill="#d67b3e" d="M 104.609375 364.859375 L 122.53125 364.859375 L 122.53125 368.863281 L 104.609375 368.863281 L 104.609375 364.859375 " fill-opacity="1" fill-rule="nonzero"/><path fill="#d67b3e" d="M 104.609375 399.066406 L 122.53125 399.066406 L 122.53125 403.074219 L 104.609375 403.074219 L 104.609375 399.066406 " fill-opacity="1" fill-rule="nonzero"/><path fill="#d67b3e" d="M 104.609375 433.277344 L 122.53125 433.277344 L 122.53125 437.28125 L 104.609375 437.28125 L 104.609375 433.277344 " fill-opacity="1" fill-rule="nonzero"/><path fill="#d67b3e" d="M 104.609375 159.609375 L 122.53125 159.609375 L 122.53125 163.613281 L 104.609375 163.613281 L 104.609375 159.609375 " fill-opacity="1" fill-rule="nonzero"/><g clip-path="url(#e9f36f0fb2)"><path fill="#51bae9" d="M 724.117188 662.148438 L 94.402344 662.148438 C 87.761719 662.375 82.214844 657.117188 82.023438 650.757812 C 81.820312 644.136719 87.484375 638.410156 94.402344 638.636719 L 724.117188 638.636719 C 731.953125 638.316406 737.933594 644.949219 737.304688 651.566406 C 736.753906 657.460938 731.023438 662.523438 724.117188 662.148438 " fill-opacity="1" fill-rule="nonzero"/></g><path fill="#99b9c1" d="M 535.351562 314.769531 C 574.5 351.472656 569.652344 462.777344 563.164062 561.503906 C 601.871094 548.148438 646.101562 556.53125 692.074219 571.765625 L 647.011719 375.855469 L 580.917969 273.523438 L 535.351562 314.769531 " fill-opacity="1" fill-rule="nonzero"/><path fill="#3d313f" d="M 603.589844 634.632812 C 603.589844 641.023438 598.410156 646.203125 592.015625 646.203125 C 585.625 646.203125 580.441406 641.023438 580.441406 634.632812 C 580.441406 628.242188 585.625 623.058594 592.015625 623.058594 C 598.410156 623.058594 603.589844 628.242188 603.589844 634.632812 " fill-opacity="1" fill-rule="nonzero"/><path fill="#3d313f" d="M 526.84375 634.632812 C 526.84375 641.023438 521.664062 646.203125 515.273438 646.203125 C 508.878906 646.203125 503.695312 641.023438 503.695312 634.632812 C 503.695312 628.242188 508.878906 623.0625 515.273438 623.0625 C 521.664062 623.0625 526.84375 628.242188 526.84375 634.632812 " fill-opacity="1" fill-rule="nonzero"/><path fill="#3d313f" d="M 680.332031 634.632812 C 680.332031 641.023438 675.152344 646.203125 668.761719 646.203125 C 662.367188 646.203125 657.183594 641.023438 657.183594 634.632812 C 657.183594 628.242188 662.367188 623.058594 668.761719 623.058594 C 675.152344 623.058594 680.332031 628.242188 680.332031 634.632812 " fill-opacity="1" fill-rule="nonzero"/><path fill="#4c4151" d="M 606.664062 521.136719 L 615.394531 521.136719 C 616.335938 521.136719 617.097656 520.371094 617.097656 519.429688 L 617.097656 518.539062 C 617.097656 517.597656 616.335938 516.832031 615.394531 516.832031 L 606.664062 516.832031 C 605.722656 516.832031 604.960938 517.597656 604.960938 518.539062 L 604.960938 519.429688 C 604.960938 520.371094 605.722656 521.136719 606.664062 521.136719 " fill-opacity="1" fill-rule="nonzero"/><path fill="#4c4151" d="M 594.894531 507.417969 L 610.742188 520.539062 L 611.660156 517.710938 L 595.816406 504.585938 L 594.894531 507.417969 " fill-opacity="1" fill-rule="nonzero"/><path fill="#3d313f" d="M 621.816406 496.660156 L 562.21875 496.660156 C 552.664062 496.660156 544.917969 488.914062 544.917969 479.359375 L 639.117188 479.359375 C 639.117188 488.914062 631.371094 496.660156 621.816406 496.660156 " fill-opacity="1" fill-rule="nonzero"/><path fill="#3d313f" d="M 592.015625 496.660156 L 562.21875 496.660156 C 552.664062 496.660156 544.917969 488.914062 544.917969 479.359375 L 639.117188 479.359375 C 639.117188 481.261719 638.808594 483.09375 638.242188 484.804688 C 590.140625 484.804688 592.015625 496.660156 592.015625 496.660156 " fill-opacity="1" fill-rule="nonzero"/><path fill="#3d313f" d="M 605.996094 496.660156 L 578.035156 496.660156 L 578.035156 502.574219 C 578.035156 504.066406 579.246094 505.273438 580.734375 505.273438 L 603.296875 505.273438 C 604.789062 505.273438 605.996094 504.066406 605.996094 502.574219 L 605.996094 496.660156 " fill-opacity="1" fill-rule="nonzero"/><path fill="#6f6177" d="M 597.796875 548.667969 L 586.164062 548.667969 L 586.164062 505.273438 L 597.796875 505.273438 L 597.796875 548.667969 " fill-opacity="1" fill-rule="nonzero"/><path fill="#4c4151" d="M 593.558594 548.667969 L 586.164062 548.667969 L 586.164062 505.273438 L 593.558594 505.273438 L 593.558594 548.667969 " fill-opacity="1" fill-rule="nonzero"/><path fill="#594b59" d="M 604.035156 620.125 L 579.992188 620.125 L 579.992188 548.667969 L 604.035156 548.667969 L 604.035156 620.125 " fill-opacity="1" fill-rule="nonzero"/><path fill="#3d313f" d="M 589.859375 620.128906 L 579.992188 620.128906 L 579.992188 548.667969 L 589.859375 548.667969 L 589.859375 620.128906 " fill-opacity="1" fill-rule="nonzero"/><path fill="#594b59" d="M 690.230469 631.957031 L 493.800781 631.957031 C 493.800781 622.128906 501.769531 614.164062 511.59375 614.164062 L 672.4375 614.164062 C 682.265625 614.164062 690.230469 622.128906 690.230469 631.957031 " fill-opacity="1" fill-rule="nonzero"/><path fill="#3d313f" d="M 614.128906 631.957031 L 493.800781 631.957031 L 493.800781 631.777344 C 493.800781 622.050781 501.6875 614.164062 511.417969 614.164062 L 588.585938 614.164062 C 596.585938 614.164062 604.46875 617.160156 609.867188 623.0625 C 612.578125 626.023438 614 628.992188 614.128906 631.957031 " fill-opacity="1" fill-rule="nonzero"/><path fill="#3a64af" d="M 664.8125 446.550781 L 519.148438 446.550781 C 513.210938 446.550781 508.398438 451.363281 508.398438 457.296875 L 508.398438 469.074219 L 675.5625 469.074219 L 675.5625 457.296875 C 675.5625 451.363281 670.746094 446.550781 664.8125 446.550781 " fill-opacity="1" fill-rule="nonzero"/><path fill="#3a64af" d="M 623.492188 446.550781 L 519.8125 446.550781 C 513.507812 446.550781 508.402344 451.082031 508.402344 456.671875 L 508.402344 469.074219 L 591.980469 469.074219 C 600.070312 461.898438 623.492188 457.8125 623.492188 446.550781 " fill-opacity="1" fill-rule="nonzero"/><path fill="#3d313f" d="M 518.683594 479.359375 L 665.273438 479.359375 C 670.953125 479.359375 675.5625 474.753906 675.5625 469.074219 L 508.398438 469.074219 C 508.398438 474.753906 513.003906 479.359375 518.683594 479.359375 " fill-opacity="1" fill-rule="nonzero"/><path fill="#3d313f" d="M 519.992188 479.359375 L 593.558594 479.359375 C 590.023438 476.222656 587.144531 473.363281 591.980469 469.074219 L 508.398438 469.074219 C 508.398438 474.753906 513.589844 479.359375 519.992188 479.359375 " fill-opacity="1" fill-rule="nonzero"/><path fill="#fc9977" d="M 499.796875 569.933594 L 522.21875 627.476562 C 524.40625 632.160156 533.519531 633.566406 534.019531 628.425781 L 534.675781 589.5625 C 535.335938 582.734375 537.421875 571.792969 530.726562 570.289062 L 520.367188 566.394531 L 519.214844 550.074219 L 499.796875 569.933594 " fill-opacity="1" fill-rule="nonzero"/><path fill="#fc9977" d="M 670.113281 417.503906 C 670.820312 390.972656 656.816406 379.519531 641.867188 358.621094 L 608.734375 362.761719 C 608.734375 362.761719 606.328125 376.453125 606.53125 385.550781 L 455.023438 400.230469 C 449.511719 401.140625 446.058594 406.410156 444.152344 412.679688 C 441.550781 421.257812 442.371094 430.519531 445.777344 438.816406 L 500.359375 571.765625 L 519.21875 550.074219 L 511.695312 507.960938 C 510.59375 488.367188 493.945312 443.171875 493.945312 443.171875 C 493.945312 443.171875 571.632812 449.679688 603.832031 449.03125 C 636.027344 448.382812 667.761719 445.882812 670.113281 417.503906 " fill-opacity="1" fill-rule="nonzero"/><path fill="#8e2525" d="M 539.609375 581.953125 L 551.046875 580.988281 L 552.1875 577.695312 L 533.121094 569.640625 L 533.125 569.640625 C 532.097656 569.074219 530.976562 568.636719 529.777344 568.367188 L 519.925781 566.15625 C 535.765625 575.808594 533.992188 616.664062 521.230469 625.144531 L 524.953125 646.199219 C 524.953125 646.199219 541.1875 647.015625 543.101562 627.328125 L 544.261719 619.507812 C 545.875 608.660156 544.300781 597.5625 539.730469 587.59375 C 538.070312 583.964844 537.359375 582.371094 539.609375 581.953125 " fill-opacity="1" fill-rule="nonzero"/><path fill="#ff8745" d="M 407.636719 319.792969 L 420.125 323.539062 L 419.59375 304.394531 L 412.789062 303.757812 L 407.636719 319.792969 " fill-opacity="1" fill-rule="nonzero"/><path fill="#c2ecff" d="M 495.363281 346.105469 L 590.09375 271.960938 L 574.035156 245.152344 L 484.476562 310.503906 L 495.363281 346.105469 " fill-opacity="1" fill-rule="nonzero"/><path fill="#c2ecff" d="M 420.546875 333.816406 L 495.367188 346.105469 L 484.476562 310.503906 L 419.59375 304.394531 L 420.546875 333.816406 " fill-opacity="1" fill-rule="nonzero"/><path fill="#fc9977" d="M 412.789062 303.757812 L 388.007812 301.234375 L 372.597656 290.96875 C 369.179688 288.585938 364.707031 288.34375 361.050781 290.355469 L 343.402344 300.050781 C 350.679688 303.554688 363.007812 307.363281 369.652344 307.863281 C 378.414062 313.40625 381.996094 317.257812 388.398438 315.226562 L 407.636719 319.792969 L 412.789062 303.757812 " fill-opacity="1" fill-rule="nonzero"/><path fill="#ffb743" d="M 659.96875 356.738281 C 620.710938 314.933594 621.085938 238.265625 593.769531 235.1875 C 549.0625 235.1875 547.28125 268.574219 531.945312 296.496094 C 528.589844 302.601562 530.042969 310.253906 535.347656 314.769531 C 564.214844 339.351562 592.597656 339.730469 597.566406 360.246094 C 605.355469 392.382812 659.96875 383.371094 659.96875 356.738281 " fill-opacity="1" fill-rule="nonzero"/><path fill="#ff8745" d="M 659.96875 356.738281 C 620.710938 314.933594 621.085938 238.265625 593.769531 235.1875 C 549.0625 235.1875 547.28125 268.574219 531.945312 296.496094 C 528.589844 302.601562 530.042969 310.253906 535.347656 314.769531 C 564.214844 339.351562 592.597656 339.730469 597.566406 360.246094 C 605.355469 392.382812 659.96875 383.371094 659.96875 356.738281 " fill-opacity="1" fill-rule="nonzero"/><path fill="#7d6579" d="M 547.261719 576.480469 L 565.148438 582.074219 L 564.414062 585.140625 L 554.183594 587.011719 L 547.261719 576.480469 " fill-opacity="1" fill-rule="nonzero"/><path fill="#ffc895" d="M 534.328125 572.722656 L 562.203125 627.832031 C 564.832031 632.28125 574.039062 632.804688 574.039062 627.636719 L 570.9375 588.890625 C 570.9375 582.03125 571.960938 570.941406 565.148438 570.089844 L 554.460938 567.214844 L 551.738281 551.082031 L 534.328125 572.722656 " fill-opacity="1" fill-rule="nonzero"/><path fill="#ffc895" d="M 689.121094 404.558594 C 687.265625 378.082031 672.222656 368.039062 655.324219 348.679688 L 597.152344 358.753906 C 597.152344 358.753906 599.996094 370.671875 601.078125 379.707031 L 473.367188 408.140625 C 467.972656 409.574219 465.042969 415.15625 463.757812 421.578125 C 461.992188 430.371094 463.703125 439.507812 467.894531 447.4375 L 535.0625 574.492188 L 551.738281 551.082031 L 540.183594 509.890625 C 537.195312 490.496094 516.253906 447.125 516.253906 447.125 C 516.253906 447.125 595.445312 458.023438 627.433594 454.265625 C 659.417969 450.511719 689.523438 433.035156 689.121094 404.558594 " fill-opacity="1" fill-rule="nonzero"/><path fill="#aa3535" d="M 575.117188 580.84375 L 586.40625 578.777344 L 587.222656 575.386719 L 567.46875 569.210938 L 567.46875 569.214844 C 566.390625 568.75 565.234375 568.421875 564.019531 568.269531 L 554 567.019531 C 570.695312 575.101562 572.878906 615.933594 560.992188 625.609375 L 566.734375 646.203125 C 566.734375 646.203125 582.972656 645.449219 582.972656 625.667969 L 583.375 617.773438 C 583.933594 606.820312 581.296875 595.929688 575.78125 586.445312 C 573.777344 582.992188 572.917969 581.476562 575.117188 580.84375 " fill-opacity="1" fill-rule="nonzero"/><path fill="#ff8745" d="M 572.496094 337.574219 L 592.566406 312.191406 C 587.414062 295.097656 580.917969 273.523438 580.917969 273.523438 L 543.316406 321.140625 C 548.726562 325.34375 571.421875 337.585938 572.496094 337.574219 " fill-opacity="1" fill-rule="nonzero"/><path fill="#ff8745" d="M 533.160156 266.714844 C 532.027344 260.453125 536.070312 244.335938 539.675781 229.050781 L 561.085938 238.058594 C 553.21875 250.800781 545.777344 265.683594 535.910156 268.484375 C 534.65625 268.839844 533.394531 267.996094 533.160156 266.714844 " fill-opacity="1" fill-rule="nonzero"/><path fill="#ffc895" d="M 494.472656 161.117188 C 479.304688 165.296875 474.773438 176.21875 481.960938 203.15625 C 483.027344 207.160156 482.503906 211.425781 480.546875 215.078125 L 475.878906 223.808594 C 475.164062 225.144531 475.667969 226.804688 477.003906 227.515625 L 482.421875 230.417969 C 485.699219 235.941406 489.523438 240.800781 489.523438 250.371094 C 490.667969 253.597656 494.144531 255.351562 497.421875 254.359375 L 518.527344 247.964844 L 543.039062 254.152344 C 559.890625 258.652344 546.707031 287.460938 554.476562 289.171875 C 559.5 290.28125 563.976562 245.507812 565.472656 216.121094 L 540.628906 207.347656 L 494.472656 161.117188 " fill-opacity="1" fill-rule="nonzero"/><path fill="#ffb743" d="M 549.949219 294.867188 L 545.183594 280.464844 L 547.980469 267.964844 L 534.988281 268.578125 C 539.585938 263.265625 545.453125 244.308594 542.652344 228.210938 L 572.066406 234.726562 L 562.648438 275.175781 L 555.613281 293.152344 L 549.949219 294.867188 " fill-opacity="1" fill-rule="nonzero"/><path fill="#d06a5a" d="M 485.542969 235.605469 C 489.257812 234.476562 493.800781 233.496094 497.84375 230.515625 C 498.921875 229.722656 500.421875 230.675781 500.074219 231.96875 C 498.546875 237.757812 495.824219 242.402344 488.972656 244.476562 C 488.363281 243.71875 486.660156 241.917969 488.097656 241.363281 C 489.566406 240.800781 488.113281 238.726562 486.34375 237.234375 C 485.839844 236.8125 485.640625 236.25 485.542969 235.605469 " fill-opacity="1" fill-rule="nonzero"/><path fill="#ffffff" d="M 486.316406 237.140625 C 486.316406 237.140625 491.121094 236.140625 493.667969 234.472656 C 494.347656 234.027344 495.230469 234.476562 494.980469 235.15625 C 493.875 238.207031 492.328125 240.085938 488.097656 241.363281 L 486.316406 237.140625 " fill-opacity="1" fill-rule="nonzero"/><path fill="#5d2a21" d="M 490.609375 211.015625 C 491.722656 213.339844 493.613281 214.746094 494.839844 214.160156 C 496.066406 213.574219 496.15625 211.214844 495.042969 208.894531 C 493.929688 206.570312 492.039062 205.164062 490.8125 205.75 C 489.589844 206.335938 489.5 208.695312 490.609375 211.015625 " fill-opacity="1" fill-rule="nonzero"/><path fill="#5d2a21" d="M 498.613281 203.976562 C 495.683594 204.789062 493.71875 205.96875 492.042969 209.078125 L 490.550781 205.917969 C 493.171875 203.800781 495.0625 204.070312 497.988281 203.3125 L 498.613281 203.976562 " fill-opacity="1" fill-rule="nonzero"/><path fill="#5d2a21" d="M 486.878906 194.234375 C 490.46875 192.78125 494.542969 192.636719 498.953125 193.40625 C 499.917969 193.578125 500.769531 192.761719 500.660156 191.789062 L 500.636719 191.597656 C 500.566406 190.980469 500.113281 190.464844 499.511719 190.320312 C 493.800781 188.984375 489.722656 188.941406 485.53125 191.585938 C 485.207031 191.789062 484.980469 192.121094 484.886719 192.492188 L 484.878906 192.527344 C 484.585938 193.707031 485.75 194.691406 486.878906 194.234375 " fill-opacity="1" fill-rule="nonzero"/><path fill="#fc9977" d="M 496.511719 254.5625 C 511.921875 247.890625 524.023438 240.867188 525.328125 229.511719 C 527.820312 236.457031 527.789062 242.988281 524.984375 249.058594 L 519.261719 247.984375 L 496.511719 254.5625 " fill-opacity="1" fill-rule="nonzero"/><path fill="#8f3d2e" d="M 493.472656 165.449219 C 493.472656 165.449219 493.390625 194.636719 504.046875 200.339844 C 514.703125 206.039062 520.296875 198.988281 527.976562 206.617188 C 535.652344 214.242188 533.539062 228.582031 544.296875 239.277344 C 550.011719 244.960938 571.109375 246.960938 589.625 247.582031 C 598.527344 247.882812 602.148438 236.246094 594.65625 231.429688 C 580.050781 222.042969 563.550781 211.121094 557.886719 206.175781 C 546.933594 196.609375 558.449219 181.460938 552.171875 160.746094 C 545.894531 140.027344 513.222656 143.785156 491.417969 158.65625 C 482.609375 153.945312 475.316406 156.140625 470.796875 161.386719 C 463.804688 169.492188 466.230469 182.070312 475.332031 187.707031 L 479.160156 190.074219 C 478.078125 176.132812 481.761719 166.855469 493.472656 165.449219 " fill-opacity="1" fill-rule="nonzero"/><path fill="#5d2a21" d="M 493.472656 165.449219 C 493.472656 165.449219 487.617188 162.183594 478.863281 166.699219 C 459.84375 176.496094 479.160156 190.078125 479.160156 190.078125 C 478.082031 176.132812 481.761719 166.855469 493.472656 165.449219 " fill-opacity="1" fill-rule="nonzero"/><path fill="#fc9977" d="M 529.464844 221.246094 C 531.230469 222.132812 532.949219 222.148438 534.582031 220.464844 L 532.453125 213.433594 L 529.464844 221.246094 " fill-opacity="1" fill-rule="nonzero"/><path fill="#5d2a21" d="M 529.246094 195.050781 L 532.558594 219.121094 L 536.515625 226.121094 C 536.492188 219.597656 541.566406 211.921875 540.929688 204.925781 C 540.292969 197.960938 536.320312 192.90625 529.246094 195.050781 " fill-opacity="1" fill-rule="nonzero"/><path fill="#ffc895" d="M 536.875 197.988281 C 536.90625 198.03125 536.933594 198.074219 536.964844 198.113281 C 538.777344 200.808594 538.960938 204.265625 537.96875 207.359375 C 537.269531 209.546875 536.371094 211.148438 535.289062 212.214844 C 534.316406 213.175781 533.644531 214.390625 533.527344 215.753906 C 533.160156 220.027344 530.121094 222.285156 527.332031 220.828125 L 527.292969 220.789062 C 524.617188 217.878906 523.035156 214.121094 522.882812 210.175781 C 522.738281 206.628906 522.882812 203.671875 523.285156 201.292969 C 524.417969 194.707031 533.058594 192.503906 536.875 197.988281 " fill-opacity="1" fill-rule="nonzero"/><path fill="#fc9977" d="M 529.988281 215.863281 C 529.742188 215.9375 529.464844 215.867188 529.285156 215.660156 L 529.074219 215.417969 C 528.210938 214.429688 527.027344 213.082031 527.203125 211.796875 C 527.253906 211.40625 527.460938 210.847656 528.132812 210.402344 C 528.695312 210.035156 529.171875 209.835938 529.554688 209.679688 C 530.308594 209.363281 530.40625 209.324219 530.414062 208.328125 C 530.417969 207.738281 529.609375 207.382812 528.734375 207.085938 C 528.484375 207.003906 528.3125 206.945312 528.175781 206.855469 C 528.222656 206.890625 528.167969 206.878906 528.109375 206.867188 C 527.597656 206.773438 526.398438 206.546875 525.773438 205.414062 C 525.15625 204.292969 525.292969 202.664062 526.183594 200.445312 C 526.851562 198.78125 527.867188 197.75 529.261719 197.394531 C 532.117188 196.644531 535.3125 199.164062 535.449219 199.273438 C 535.734375 199.503906 535.785156 199.921875 535.554688 200.214844 C 535.324219 200.496094 534.90625 200.550781 534.613281 200.320312 C 534.585938 200.296875 531.800781 198.109375 529.597656 198.691406 C 528.597656 198.9375 527.9375 199.679688 527.429688 200.945312 C 526.527344 203.183594 526.667969 204.261719 526.949219 204.773438 C 527.242188 205.304688 527.804688 205.449219 528.351562 205.550781 C 528.570312 205.59375 528.742188 205.625 528.898438 205.730469 C 528.933594 205.742188 529.035156 205.773438 529.164062 205.816406 C 530.007812 206.101562 531.769531 206.695312 531.753906 208.339844 C 531.738281 210.097656 531.105469 210.484375 530.070312 210.914062 C 529.722656 211.058594 529.328125 211.222656 528.871094 211.523438 C 528.59375 211.707031 528.542969 211.871094 528.527344 211.976562 C 528.4375 212.660156 529.464844 213.832031 530.078125 214.53125 L 530.300781 214.78125 C 530.539062 215.0625 530.511719 215.484375 530.230469 215.726562 C 530.160156 215.789062 530.074219 215.835938 529.988281 215.863281 " fill-opacity="1" fill-rule="nonzero"/><path fill="#fc9977" d="M 475.589844 225.53125 C 478.160156 226.847656 480.597656 227.066406 482.929688 226.527344 C 483.792969 226.332031 484.46875 227.253906 483.988281 227.996094 L 482.417969 230.417969 C 479.386719 228.9375 475.710938 227.585938 475.589844 225.53125 " fill-opacity="1" fill-rule="nonzero"/><path fill="#594b59" d="M 689.121094 404.558594 C 687.265625 378.082031 672.21875 368.039062 655.324219 348.679688 L 597.152344 358.753906 C 597.152344 358.753906 599.996094 370.671875 601.078125 379.707031 C 601.078125 379.707031 456.816406 399.316406 455.019531 400.230469 C 455.019531 400.230469 504.296875 405.28125 516.257812 447.121094 C 516.257812 447.121094 591.613281 458.8125 623.601562 455.054688 C 655.585938 451.300781 689.121094 442.660156 689.121094 404.558594 " fill-opacity="1" fill-rule="nonzero"/><path fill="#193051" d="M 500.480469 283.140625 C 495.027344 268.570312 507.546875 257.730469 505.851562 251.859375 L 508.378906 251.128906 C 509.996094 256.738281 500.589844 271.453125 501.894531 276.300781 C 503.875 271.617188 507.6875 267.164062 511.894531 262.253906 C 515.441406 258.105469 519.464844 253.40625 522.929688 247.917969 L 525.265625 249.390625 C 521.695312 255.054688 517.605469 259.832031 513.992188 264.046875 C 507.980469 271.074219 503.230469 276.621094 503.230469 282.9375 L 500.480469 283.140625 " fill-opacity="1" fill-rule="nonzero"/><path fill="#ffffff" d="M 534.582031 212.253906 C 534.582031 214.023438 533.144531 215.457031 531.378906 215.457031 C 529.609375 215.457031 528.175781 214.023438 528.175781 212.253906 C 528.175781 210.484375 529.609375 209.050781 531.378906 209.050781 C 533.144531 209.050781 534.582031 210.484375 534.582031 212.253906 " fill-opacity="1" fill-rule="nonzero"/><path fill="#d2c9c3" d="M 525.238281 249.4375 L 522.960938 247.875 C 532.277344 234.277344 538.082031 218.871094 535.636719 214.230469 C 535.320312 213.636719 534.761719 212.949219 533.179688 212.949219 C 531.378906 212.949219 531.351562 210.339844 533.179688 210.1875 C 536.03125 210.1875 537.417969 211.6875 538.082031 212.941406 C 541.726562 219.867188 532.765625 238.449219 525.238281 249.4375 " fill-opacity="1" fill-rule="nonzero"/><path fill="#e3f8ff" d="M 647.761719 326.335938 C 636.140625 293.902344 616.429688 235.769531 596.996094 233.578125 C 575.289062 233.117188 545.183594 280.464844 545.183594 280.464844 L 603.574219 357.285156 C 617.539062 374.714844 624.503906 396.722656 623.121094 419.015625 L 623.492188 590.882812 C 658.246094 589.203125 683.121094 583.628906 692.074219 571.765625 L 692.074219 404.558594 C 690.722656 388.148438 680.1875 374.660156 669.4375 362.589844 C 659.980469 351.976562 652.554688 339.71875 647.761719 326.335938 " fill-opacity="1" fill-rule="nonzero"/><path fill="#c2ecff" d="M 580.703125 327.195312 L 596.128906 306.066406 C 599.292969 295.097656 592.792969 273.523438 592.792969 273.523438 L 569.390625 312.5 L 580.703125 327.195312 " fill-opacity="1" fill-rule="nonzero"/><path fill="#3d313f" d="M 257.386719 634.632812 C 257.386719 641.023438 262.566406 646.203125 268.960938 646.203125 C 275.351562 646.203125 280.535156 641.023438 280.535156 634.632812 C 280.535156 628.242188 275.351562 623.058594 268.960938 623.058594 C 262.566406 623.058594 257.386719 628.242188 257.386719 634.632812 " fill-opacity="1" fill-rule="nonzero"/><path fill="#3d313f" d="M 334.132812 634.632812 C 334.132812 641.023438 339.3125 646.203125 345.703125 646.203125 C 352.097656 646.203125 357.277344 641.023438 357.277344 634.632812 C 357.277344 628.242188 352.097656 623.058594 345.703125 623.058594 C 339.3125 623.058594 334.132812 628.242188 334.132812 634.632812 " fill-opacity="1" fill-rule="nonzero"/><path fill="#3d313f" d="M 180.640625 634.632812 C 180.640625 641.023438 185.824219 646.203125 192.214844 646.203125 C 198.609375 646.203125 203.789062 641.023438 203.789062 634.632812 C 203.789062 628.242188 198.609375 623.058594 192.214844 623.058594 C 185.824219 623.058594 180.640625 628.242188 180.640625 634.632812 " fill-opacity="1" fill-rule="nonzero"/><path fill="#4c4151" d="M 249.636719 521.136719 L 228.585938 521.136719 C 227.398438 521.136719 226.4375 520.171875 226.4375 518.984375 C 226.4375 517.796875 227.398438 516.832031 228.585938 516.832031 L 249.636719 516.832031 C 250.824219 516.832031 251.789062 517.796875 251.789062 518.984375 C 251.789062 520.171875 250.824219 521.136719 249.636719 521.136719 " fill-opacity="1" fill-rule="nonzero"/><path fill="#4c4151" d="M 272.808594 507.417969 L 239.722656 520.539062 L 237.796875 517.710938 L 270.886719 504.589844 L 272.808594 507.417969 " fill-opacity="1" fill-rule="nonzero"/><path fill="#594b59" d="M 239.164062 496.660156 L 298.757812 496.660156 C 308.3125 496.660156 316.058594 488.914062 316.058594 479.359375 L 221.859375 479.359375 C 221.859375 488.914062 229.605469 496.660156 239.164062 496.660156 " fill-opacity="1" fill-rule="nonzero"/><path fill="#3d313f" d="M 268.960938 496.660156 L 298.757812 496.660156 C 308.3125 496.660156 316.058594 488.914062 316.058594 479.359375 L 221.859375 479.359375 C 221.859375 481.261719 222.167969 483.09375 222.734375 484.804688 C 270.835938 484.804688 268.960938 496.660156 268.960938 496.660156 " fill-opacity="1" fill-rule="nonzero"/><path fill="#3d313f" d="M 254.980469 496.660156 L 282.941406 496.660156 L 282.941406 502.574219 C 282.941406 504.066406 281.734375 505.273438 280.242188 505.273438 L 257.679688 505.273438 C 256.1875 505.273438 254.980469 504.066406 254.980469 502.574219 L 254.980469 496.660156 " fill-opacity="1" fill-rule="nonzero"/><path fill="#6f6177" d="M 263.179688 548.667969 L 274.8125 548.667969 L 274.8125 505.273438 L 263.179688 505.273438 L 263.179688 548.667969 " fill-opacity="1" fill-rule="nonzero"/><path fill="#4c4151" d="M 267.417969 548.667969 L 274.8125 548.667969 L 274.8125 505.273438 L 267.417969 505.273438 L 267.417969 548.667969 " fill-opacity="1" fill-rule="nonzero"/><path fill="#594b59" d="M 256.9375 620.128906 L 280.980469 620.128906 L 280.980469 548.667969 L 256.9375 548.667969 L 256.9375 620.128906 " fill-opacity="1" fill-rule="nonzero"/><path fill="#3d313f" d="M 271.113281 620.128906 L 280.980469 620.128906 L 280.980469 548.667969 L 271.113281 548.667969 L 271.113281 620.128906 " fill-opacity="1" fill-rule="nonzero"/><path fill="#594b59" d="M 170.746094 631.957031 L 367.175781 631.957031 C 367.175781 622.128906 359.210938 614.164062 349.382812 614.164062 L 188.539062 614.164062 C 178.710938 614.164062 170.746094 622.128906 170.746094 631.957031 " fill-opacity="1" fill-rule="nonzero"/><path fill="#3d313f" d="M 246.847656 631.957031 L 367.175781 631.957031 L 367.175781 631.777344 C 367.175781 622.050781 359.289062 614.164062 349.558594 614.164062 L 272.386719 614.164062 C 264.390625 614.164062 256.503906 617.15625 251.109375 623.0625 C 248.394531 626.023438 246.976562 628.992188 246.847656 631.957031 " fill-opacity="1" fill-rule="nonzero"/><path fill="#219ff4" d="M 196.164062 446.550781 L 341.828125 446.550781 C 347.761719 446.550781 352.578125 451.363281 352.578125 457.296875 L 352.578125 469.074219 L 185.417969 469.074219 L 185.417969 457.296875 C 185.417969 451.363281 190.230469 446.550781 196.164062 446.550781 " fill-opacity="1" fill-rule="nonzero"/><path fill="#3a64af" d="M 237.484375 446.550781 L 341.164062 446.550781 C 347.464844 446.550781 352.578125 451.082031 352.578125 456.671875 L 352.578125 469.074219 L 268.996094 469.074219 C 260.910156 461.898438 237.484375 457.8125 237.484375 446.550781 " fill-opacity="1" fill-rule="nonzero"/><path fill="#594b59" d="M 342.289062 479.359375 L 195.703125 479.359375 C 190.023438 479.359375 185.417969 474.753906 185.417969 469.074219 L 352.578125 469.074219 C 352.578125 474.753906 347.96875 479.359375 342.289062 479.359375 " fill-opacity="1" fill-rule="nonzero"/><path fill="#3d313f" d="M 340.980469 479.359375 L 267.414062 479.359375 C 270.953125 476.222656 273.832031 473.363281 268.996094 469.074219 L 352.578125 469.074219 C 352.578125 474.753906 347.386719 479.359375 340.980469 479.359375 " fill-opacity="1" fill-rule="nonzero"/><path fill="#7ab23f" d="M 363.835938 286.253906 L 394.660156 286.253906 C 408.234375 285.738281 396.394531 293.996094 395.179688 307.472656 L 371.160156 312.882812 L 363.835938 286.253906 " fill-opacity="1" fill-rule="nonzero"/><path fill="#ff8a50" d="M 290.617188 131.167969 C 313.253906 128.003906 325.753906 216.605469 280.167969 230.847656 C 299.101562 255.058594 286.097656 295.667969 258.21875 303.628906 L 240.941406 299.738281 C 216.71875 298.597656 197.925781 283.082031 203.617188 259.511719 C 208.445312 239.511719 205.144531 218.671875 233.753906 209.144531 C 249.027344 204.058594 189.746094 193.335938 221.703125 150.308594 L 290.617188 131.167969 " fill-opacity="1" fill-rule="nonzero"/><path fill="#ff977b" d="M 254.902344 214.40625 C 248.839844 205.359375 246.359375 197.5625 246.359375 197.5625 L 241.460938 144.292969 L 274.976562 219.773438 C 274.300781 220.71875 272.546875 225.632812 272.054688 227.40625 C 268.199219 229.246094 261.152344 223.734375 254.902344 214.40625 " fill-opacity="1" fill-rule="nonzero"/><path fill="#ffcbae" d="M 281.679688 137.976562 C 294.433594 137.488281 303.640625 148.140625 300.257812 162.582031 C 299.710938 164.917969 297.640625 164.210938 297.046875 167.71875 C 296.453125 171.226562 294.898438 179.402344 294.898438 179.402344 C 294.898438 179.402344 299.632812 188.769531 298.601562 194.917969 C 294.796875 217.582031 291.25 221.039062 284.671875 223.546875 C 278.097656 226.054688 255.996094 218.84375 251.054688 211.859375 C 246.109375 204.878906 244.273438 193.679688 243.054688 184.582031 L 235.035156 165.59375 C 233 151.960938 243.261719 139.578125 257.042969 139.046875 L 281.679688 137.976562 " fill-opacity="1" fill-rule="nonzero"/><path fill="#ff8a50" d="M 300.386719 151.777344 C 298.148438 142.964844 289.640625 147.898438 285.421875 152.121094 C 261.601562 136.941406 247.144531 155.59375 249.402344 163.214844 C 251.195312 169.296875 255.550781 171.589844 250.222656 175.316406 C 244.894531 179.042969 251.074219 182.519531 247.390625 185.636719 C 243.707031 188.75 238.257812 177.597656 238.257812 177.597656 C 207.75 151.3125 223.902344 125.417969 248.53125 118.121094 C 264.484375 113.398438 310.363281 116.882812 300.386719 151.777344 " fill-opacity="1" fill-rule="nonzero"/><path fill="#ffcbae" d="M 240.460938 177.507812 C 248.460938 178.09375 243.546875 182.824219 248.300781 186.476562 C 249.371094 187.296875 249.898438 188.457031 249.753906 189.722656 L 245.257812 200.109375 C 244.519531 201.554688 241.253906 201.460938 240.40625 200.488281 C 238.246094 198.023438 239.410156 191.632812 238.101562 189.042969 C 235.832031 184.546875 232.882812 176.957031 240.460938 177.507812 " fill-opacity="1" fill-rule="nonzero"/><path fill="#ff977b" d="M 243.40625 194.414062 C 243.273438 194.453125 243.128906 194.464844 242.992188 194.4375 C 241.992188 194.242188 240.300781 193.433594 241.066406 191.773438 C 241.175781 191.527344 241.359375 191.226562 241.5625 190.886719 C 242.261719 189.726562 243.21875 188.136719 242.113281 187.308594 C 240.921875 186.421875 240.808594 185.261719 240.703125 184.234375 C 240.570312 182.898438 240.476562 181.933594 238.351562 181.632812 C 238.011719 181.582031 237.847656 181.328125 237.984375 181.066406 C 238.117188 180.800781 238.503906 180.621094 238.84375 180.671875 C 241.738281 181.082031 241.890625 182.617188 242.023438 183.976562 C 242.121094 184.945312 242.214844 185.867188 243.140625 186.558594 C 244.769531 187.777344 243.558594 189.792969 242.757812 191.125 C 242.578125 191.425781 242.414062 191.699219 242.3125 191.914062 C 241.769531 193.089844 243.375 193.457031 243.5625 193.492188 C 243.890625 193.558594 244.03125 193.824219 243.871094 194.085938 C 243.78125 194.238281 243.601562 194.355469 243.40625 194.414062 " fill-opacity="1" fill-rule="nonzero"/><path fill="#ffcbae" d="M 272.054688 227.40625 C 271.53125 231.125 274.601562 234.785156 278.507812 236.570312 C 282.113281 238.222656 284.394531 241.972656 284.460938 245.9375 C 284.8125 266.40625 264.453125 266.308594 237.945312 260.101562 L 233.753906 228.15625 C 245.171875 221.054688 247.0625 217.980469 246.195312 197.945312 C 254.300781 211.402344 261.972656 225.710938 272.054688 227.40625 " fill-opacity="1" fill-rule="nonzero"/><path fill="#d06a5a" d="M 268.441406 202.113281 C 276.273438 215.925781 284.09375 218.003906 291.894531 204.363281 C 292.117188 203.972656 291.757812 203.515625 291.320312 203.625 C 283.894531 205.515625 276.460938 203.621094 269.03125 201.371094 C 268.59375 201.238281 268.214844 201.714844 268.441406 202.113281 " fill-opacity="1" fill-rule="nonzero"/><path fill="#ffffff" d="M 274.425781 204.398438 C 278.492188 209.625 284.539062 211.382812 289.546875 205.277344 C 289.804688 204.960938 289.492188 204.511719 289.105469 204.636719 C 285.328125 205.84375 278.902344 205.15625 274.859375 203.765625 C 274.480469 203.636719 274.179688 204.082031 274.425781 204.398438 " fill-opacity="1" fill-rule="nonzero"/><path fill="#ff977b" d="M 291.023438 162.546875 L 300.257812 162.585938 L 296.832031 178.59375 C 296.628906 181.6875 293.847656 183.445312 292.007812 182.390625 L 288.398438 182.359375 C 286.621094 179.238281 286.328125 174.496094 287.371094 168.296875 L 291.023438 162.546875 " fill-opacity="1" fill-rule="nonzero"/><path fill="#5d2a21" d="M 264.863281 166.515625 L 275.332031 163.734375 C 276.320312 163.472656 276.964844 162.683594 276.773438 161.972656 C 276.601562 161.320312 275.78125 160.949219 274.863281 161.109375 L 264.152344 162.972656 C 263.0625 163.164062 262.289062 164.011719 262.492188 164.785156 L 262.734375 165.699219 C 262.925781 166.410156 263.878906 166.777344 264.863281 166.515625 " fill-opacity="1" fill-rule="nonzero"/><path fill="#5d2a21" d="M 267.269531 184.585938 C 268.890625 185.515625 270.960938 184.949219 271.890625 183.328125 C 272.820312 181.703125 272.257812 179.636719 270.632812 178.707031 C 269.011719 177.777344 266.941406 178.339844 266.011719 179.960938 C 265.082031 181.585938 265.644531 183.65625 267.269531 184.585938 " fill-opacity="1" fill-rule="nonzero"/><path fill="#5d2a21" d="M 274.824219 178.777344 C 275.007812 179.597656 272.5 179.101562 271.144531 179.023438 C 268.3125 179.027344 267.84375 179.160156 266.210938 179.582031 C 262 180.816406 261.808594 182.296875 260.882812 181.878906 C 259.808594 181.386719 262.980469 178.222656 268.851562 176.917969 C 272.242188 176.164062 274.664062 178.054688 274.824219 178.777344 " fill-opacity="1" fill-rule="nonzero"/><path fill="#5d2a21" d="M 294.53125 181.707031 C 293.785156 183.011719 292.121094 183.460938 290.816406 182.714844 C 289.511719 181.96875 289.0625 180.304688 289.808594 179 C 290.554688 177.695312 292.21875 177.246094 293.523438 177.992188 C 294.824219 178.738281 295.28125 180.402344 294.53125 181.707031 " fill-opacity="1" fill-rule="nonzero"/><path fill="#5d2a21" d="M 289.394531 179.667969 C 289.542969 180.742188 291.074219 179.195312 291.960938 178.589844 C 293.875 177.535156 294.238281 177.519531 295.480469 177.417969 C 298.730469 177.34375 299.351562 179.074219 299.835938 178.210938 C 300.398438 177.214844 297.207031 174.558594 292.8125 175.171875 C 290.273438 175.523438 289.261719 178.730469 289.394531 179.667969 " fill-opacity="1" fill-rule="nonzero"/><path fill="#ff977b" d="M 287.371094 168.296875 L 288.960938 168.550781 C 287.683594 175.003906 286.847656 178.542969 294.644531 193.089844 C 295.136719 194.902344 293.8125 197.3125 290.683594 198.871094 C 288.789062 199.816406 286.609375 200.035156 284.511719 199.761719 L 280.167969 199.207031 L 287.457031 197.945312 C 292.367188 197.289062 292.488281 192.199219 289.101562 190.941406 C 287.707031 190.417969 286.675781 189.164062 286.132812 187.78125 C 282.574219 178.785156 285.371094 172.789062 287.371094 168.296875 " fill-opacity="1" fill-rule="nonzero"/><path fill="#5d2a21" d="M 299.09375 164.105469 L 292.070312 163.167969 C 291.410156 163.078125 290.933594 162.535156 291.011719 161.949219 C 291.085938 161.414062 291.597656 161.023438 292.207031 161.039062 L 299.332031 161.230469 C 300.054688 161.253906 300.617188 161.828125 300.53125 162.460938 L 300.429688 163.207031 C 300.351562 163.792969 299.753906 164.195312 299.09375 164.105469 " fill-opacity="1" fill-rule="nonzero"/><path fill="#5ebbef" d="M 279.421875 360.234375 L 307.3125 348.671875 L 308.546875 279.425781 C 313.253906 246.378906 284.589844 239.25 284.589844 239.25 L 279.421875 360.234375 " fill-opacity="1" fill-rule="nonzero"/><path fill="#5ebbef" d="M 344.019531 382.277344 L 356.347656 368.667969 L 297.710938 328.671875 L 285.578125 358.09375 L 344.019531 382.277344 " fill-opacity="1" fill-rule="nonzero"/><path fill="#a04732" d="M 301.546875 379.105469 L 384.257812 400.527344 C 403.019531 404.921875 408.488281 427.785156 403.308594 446.347656 L 362.707031 582.648438 L 339.609375 577.933594 L 342.867188 492.636719 C 344.53125 466.980469 346.421875 450.957031 346.421875 450.957031 C 346.421875 450.957031 189.304688 441.429688 251.207031 379.535156 L 301.546875 379.105469 " fill-opacity="1" fill-rule="nonzero"/><path fill="#c35c39" d="M 269.449219 379.105469 L 349.242188 400.53125 C 368.007812 404.921875 373.472656 427.785156 368.292969 446.347656 L 313.90625 585.707031 L 290.808594 580.992188 L 293.867188 525.519531 C 295.535156 499.863281 311.125 449.257812 311.125 449.257812 C 300.230469 452.023438 288.953125 454.351562 268.996094 454.351562 C 221.894531 454.351562 214.757812 450.074219 208.460938 434.941406 C 202.449219 420.496094 206.550781 400.710938 220.730469 379.105469 L 269.449219 379.105469 " fill-opacity="1" fill-rule="nonzero"/><path fill="#a9d8ff" d="M 233.753906 228.15625 L 221.996094 235.492188 C 213.847656 238.246094 187.460938 263.609375 195.835938 278.953125 L 234.789062 328.160156 C 237.929688 343.917969 220.730469 379.105469 220.730469 379.105469 L 301.546875 379.105469 L 289.714844 343.144531 C 289.839844 334.640625 293.277344 326.519531 299.289062 320.507812 L 307.128906 312.671875 C 312.59375 307.203125 314.601562 299.167969 312.34375 291.773438 C 302.320312 278.90625 295.777344 263.390625 294.246094 244.058594 C 293.144531 241.308594 278.769531 236.386719 278.769531 236.386719 C 280.929688 246.933594 283.445312 260.101562 267.25 260.101562 C 252.917969 260.101562 244.589844 241.945312 233.753906 228.15625 " fill-opacity="1" fill-rule="nonzero"/><path fill="#5ebbef" d="M 294.246094 379.167969 L 252.773438 342.046875 L 244.445312 305.648438 C 241.613281 295.09375 234.804688 277.542969 224.296875 280.550781 L 203.617188 289.460938 L 221.5625 323.179688 C 225.964844 339.375 231.273438 349.410156 220.730469 379.105469 L 269.449219 379.105469 L 294.246094 379.167969 " fill-opacity="1" fill-rule="nonzero"/><path fill="#ffbf94" d="M 290.808594 580.992188 L 287.152344 606.855469 L 282.492188 616.980469 C 282.492188 637.097656 306.429688 615.246094 306.429688 615.246094 L 313.90625 585.707031 L 290.808594 580.992188 " fill-opacity="1" fill-rule="nonzero"/><path fill="#ffffff" d="M 409.214844 648.871094 C 370.148438 654.765625 347.109375 641.105469 326.65625 648.871094 L 326.65625 627.933594 L 411.519531 627.933594 C 414.425781 627.933594 416.75 630.339844 416.65625 633.238281 L 416.332031 643.050781 C 416.226562 646.292969 413.070312 647.917969 409.214844 648.871094 " fill-opacity="1" fill-rule="nonzero"/><path fill="#ff977b" d="M 339.613281 577.933594 L 338.730469 591.300781 C 338.269531 596.257812 336.347656 600.960938 333.207031 604.820312 L 331.757812 606.605469 C 329.660156 628.699219 341.351562 621.210938 357.453125 606.605469 L 362.707031 582.648438 L 339.613281 577.933594 " fill-opacity="1" fill-rule="nonzero"/><path fill="#b29f93" d="M 331.757812 606.605469 C 327.902344 610.894531 324.640625 617.25 323.515625 626.5 C 323.050781 630.3125 325.976562 633.726562 329.820312 633.804688 C 369.996094 634.617188 386.527344 642.351562 413.539062 635.152344 C 417.183594 634.179688 418.03125 629.382812 414.898438 627.285156 C 411.28125 624.855469 404.574219 623.578125 393.542969 623.578125 C 375.90625 623.578125 366.523438 615.210938 357.453125 606.605469 C 342.605469 618.519531 333.128906 620.242188 331.757812 606.605469 " fill-opacity="1" fill-rule="nonzero"/><path fill="#ffffff" d="M 341.964844 650.839844 C 330.957031 655.210938 320.1875 656.460938 293.554688 651.660156 L 283.207031 651.976562 C 277.554688 650.980469 277.144531 646.027344 276.804688 641.960938 L 276.253906 635.296875 L 339.160156 630.0625 C 342.46875 629.789062 345.378906 632.25 345.652344 635.5625 L 346.203125 642.1875 C 346.433594 644.90625 347.632812 647.59375 341.964844 650.839844 " fill-opacity="1" fill-rule="nonzero"/><path fill="#d2c9c3" d="M 282.492188 616.980469 C 279.902344 622.484375 274.988281 630.082031 276.25 635.296875 C 277.371094 639.898438 287.382812 641.210938 292.101562 641.625 C 326.523438 644.644531 346.457031 640.769531 345.523438 634.082031 C 344.78125 628.742188 343.34375 620.75 328.742188 622.785156 C 317.882812 624.300781 312.179688 607.941406 302.695312 609.273438 C 288.527344 611.25 291.003906 633.445312 282.492188 616.980469 " fill-opacity="1" fill-rule="nonzero"/><path fill="#fccca8" d="M 370.078125 398.699219 C 370.5 404.816406 374.511719 416.144531 369.882812 416.144531 L 341.863281 416.144531 C 332.425781 416.144531 321.480469 393.730469 320.617188 381.253906 L 308.117188 303.632812 C 307.386719 295.722656 320.410156 288.59375 325.988281 291.527344 C 337.882812 297.777344 349.613281 300.9375 360.300781 295.289062 C 365.203125 292.699219 373.917969 318.882812 374.402344 325.859375 L 373.898438 346.34375 L 375.046875 350.222656 C 378.390625 361.496094 378.242188 373.519531 374.613281 384.703125 L 370.078125 398.699219 " fill-opacity="1" fill-rule="nonzero"/><path fill="#f2a07c" d="M 312.773438 332.882812 C 339.421875 347.351562 339.421875 304.9375 374.402344 325.859375 L 371.886719 307.980469 L 309.070312 312.527344 L 312.773438 332.882812 " fill-opacity="1" fill-rule="nonzero"/><path fill="#3d313f" d="M 411.015625 416.144531 L 328.542969 416.144531 C 324.164062 416.144531 320.621094 412.597656 320.621094 408.222656 L 320.621094 381.253906 L 395.46875 381.253906 C 405.984375 381.253906 412.222656 384.285156 412.222656 394.800781 L 411.015625 416.144531 " fill-opacity="1" fill-rule="nonzero"/><path fill="#594b59" d="M 373.195312 416.144531 L 325.226562 416.144531 C 322.683594 416.144531 320.617188 412.597656 320.617188 408.222656 L 320.617188 381.253906 L 364.152344 381.253906 C 370.269531 381.253906 373.898438 384.289062 373.898438 394.800781 L 373.195312 416.144531 " fill-opacity="1" fill-rule="nonzero"/><path fill="#7fbc44" d="M 375.332031 318.96875 C 375.753906 321.121094 353.238281 315.332031 353.238281 315.332031 C 343.796875 315.332031 313.632812 322.398438 312.773438 318.007812 L 315.21875 290.933594 C 314.488281 288.152344 321.238281 285.542969 326.816406 286.574219 C 338.710938 288.777344 344.054688 290.851562 363.832031 286.25 C 368.691406 285.121094 370.675781 298.773438 371.160156 301.226562 L 375.332031 318.96875 " fill-opacity="1" fill-rule="nonzero"/><path fill="#8cce52" d="M 312.769531 310.765625 L 327.742188 305.535156 C 329.878906 304.789062 332.167969 304.59375 334.402344 304.964844 L 352.441406 307.980469 L 312.769531 310.765625 " fill-opacity="1" fill-rule="nonzero"/><path fill="#8cce52" d="M 325.648438 319.445312 L 367.964844 315.328125 L 341.75 313.203125 C 339.148438 312.992188 336.546875 313.542969 334.253906 314.785156 L 325.648438 319.445312 " fill-opacity="1" fill-rule="nonzero"/><path fill="#8cce52" d="M 358.707031 305.648438 L 375.339844 307.980469 L 373.78125 308.570312 C 370.089844 309.964844 365.976562 309.664062 362.523438 307.757812 L 358.707031 305.648438 " fill-opacity="1" fill-rule="nonzero"/><path fill="#5f8e32" d="M 318.40625 310.367188 L 344.054688 308.570312 L 330.476562 311.578125 C 328.675781 311.980469 326.8125 312.003906 325 311.652344 L 318.40625 310.367188 " fill-opacity="1" fill-rule="nonzero"/><path fill="#5f8e32" d="M 348.769531 309.65625 L 355.023438 308.601562 C 357.433594 308.195312 359.910156 308.453125 362.183594 309.347656 L 371.164062 312.878906 L 360.550781 310.875 C 360.160156 310.800781 359.769531 310.746094 359.378906 310.707031 L 348.769531 309.65625 " fill-opacity="1" fill-rule="nonzero"/><path fill="#5f8e32" d="M 356.777344 316.210938 L 371.164062 315.332031 L 371.003906 315.429688 C 368.007812 317.300781 364.398438 317.914062 360.957031 317.140625 L 356.777344 316.210938 " fill-opacity="1" fill-rule="nonzero"/><path fill="#a9d8ff" d="M 226.4375 366.296875 L 246.925781 356.054688 L 225.933594 265.765625 L 194.726562 276.183594 C 194.726562 276.183594 221.402344 366.5 226.4375 366.296875 " fill-opacity="1" fill-rule="nonzero"/><path fill="#a9d8ff" d="M 282.578125 396.304688 L 293.765625 384.375 L 244.160156 343.855469 L 226.4375 366.296875 L 282.578125 396.304688 " fill-opacity="1" fill-rule="nonzero"/><path fill="#ffcbae" d="M 312.691406 385.171875 L 332.359375 391.746094 L 339.671875 407.8125 L 322.429688 412.449219 C 318.058594 413.625 312.898438 412.976562 308.476562 410.695312 L 282.578125 396.304688 L 293.765625 384.378906 L 307.304688 384.386719 C 309.078125 384.3125 310.925781 384.582031 312.691406 385.171875 " fill-opacity="1" fill-rule="nonzero"/><path fill="#ffffff" d="M 350.121094 296.203125 C 350.121094 302.113281 345.328125 304.941406 339.417969 304.941406 C 333.507812 304.941406 328.71875 302.113281 328.71875 296.203125 C 328.71875 290.296875 333.507812 285.503906 339.417969 285.503906 C 345.328125 285.503906 350.121094 290.296875 350.121094 296.203125 " fill-opacity="1" fill-rule="nonzero"/><path fill="#fccca8" d="M 334.445312 278.953125 L 349.089844 291.058594 L 348.011719 295.375 C 346.679688 300.71875 340.671875 303.378906 335.824219 300.777344 L 333.648438 299.613281 C 328.933594 297.085938 327.269531 291.144531 329.984375 286.535156 L 334.445312 278.953125 " fill-opacity="1" fill-rule="nonzero"/><path fill="#f4b08e" d="M 336.882812 281.859375 C 339.984375 286.367188 343.679688 289.988281 349.089844 291.054688 L 348.046875 295.238281 C 339.632812 293.742188 336.742188 288.757812 336.882812 281.859375 " fill-opacity="1" fill-rule="nonzero"/><path fill="#fccca8" d="M 370.957031 226.972656 L 379.800781 258.695312 C 386.023438 277.84375 368.539062 296.265625 349.089844 291.054688 C 343.160156 289.429688 339.554688 286.828125 333.679688 281.53125 L 323.808594 237.882812 L 370.957031 226.972656 " fill-opacity="1" fill-rule="nonzero"/><path fill="#ffa664" d="M 339.527344 263.59375 L 337.746094 256.414062 C 342.019531 252.941406 343.039062 246.828125 340.121094 242.160156 L 335.726562 235.121094 L 330.230469 221.164062 C 298.125 222.570312 294.917969 234.773438 300.480469 252.132812 C 306.046875 269.492188 321.128906 275.96875 327.296875 274.640625 L 332.019531 274.195312 C 337.234375 273.699219 340.789062 268.683594 339.527344 263.59375 " fill-opacity="1" fill-rule="nonzero"/><path fill="#fccca8" d="M 338.71875 269.058594 C 340.558594 274.417969 338.597656 279.945312 334.332031 281.414062 C 330.070312 282.878906 325.121094 279.722656 323.28125 274.363281 C 321.4375 269.007812 323.402344 263.476562 327.664062 262.015625 C 331.929688 260.546875 336.875 263.703125 338.71875 269.058594 " fill-opacity="1" fill-rule="nonzero"/><path fill="#d06a5a" d="M 360.035156 277.382812 C 363.007812 279.191406 366.949219 279.855469 372.570312 278.519531 C 372.777344 278.472656 372.949219 278.714844 372.808594 278.871094 C 370.578125 281.339844 367.105469 282.996094 364.269531 283.648438 C 362.78125 283.992188 361.179688 283.746094 360.019531 282.75 C 358.230469 281.214844 358.570312 279.445312 359.285156 277.621094 C 359.402344 277.324219 359.757812 277.214844 360.035156 277.382812 " fill-opacity="1" fill-rule="nonzero"/><path fill="#f2a07c" d="M 367.964844 277.066406 L 370.78125 275.1875 C 372.496094 274.039062 372.5625 271.542969 370.914062 270.308594 L 370.503906 269.933594 C 369.253906 268.792969 368.6875 267.085938 369.003906 265.421875 C 368.671875 266.398438 372.933594 269.273438 373.550781 270.101562 C 374.703125 271.648438 374.195312 273.859375 372.480469 274.746094 L 367.964844 277.066406 " fill-opacity="1" fill-rule="nonzero"/><path fill="#5d2a21" d="M 360.667969 264.882812 C 361.375 266.945312 360.800781 269.011719 359.378906 269.5 C 357.960938 269.988281 356.238281 268.710938 355.527344 266.648438 C 354.820312 264.582031 355.394531 262.515625 356.816406 262.027344 C 358.230469 261.539062 359.957031 262.820312 360.667969 264.882812 " fill-opacity="1" fill-rule="nonzero"/><path fill="#5d2a21" d="M 378.863281 260.050781 C 379.570312 262.113281 378.996094 264.179688 377.574219 264.667969 C 376.15625 265.15625 374.433594 263.878906 373.726562 261.816406 C 373.015625 259.75 373.585938 257.683594 375.007812 257.195312 C 376.425781 256.710938 378.152344 257.984375 378.863281 260.050781 " fill-opacity="1" fill-rule="nonzero"/><path fill="#5d2a21" d="M 359.410156 248.242188 C 356.332031 246.335938 353.03125 248.351562 350.964844 250.75 C 350.246094 251.585938 351.5625 252.667969 352.277344 251.835938 C 353.882812 249.976562 356.261719 248.285156 358.695312 249.792969 C 359.625 250.367188 360.335938 248.8125 359.410156 248.242188 " fill-opacity="1" fill-rule="nonzero"/><path fill="#5d2a21" d="M 367.6875 246.246094 C 370.199219 243.808594 373.632812 245.183594 375.992188 247.164062 C 376.8125 247.851562 375.789062 249.15625 374.972656 248.472656 C 373.136719 246.933594 370.621094 245.707031 368.636719 247.632812 C 367.875 248.371094 366.933594 246.976562 367.6875 246.246094 " fill-opacity="1" fill-rule="nonzero"/><path fill="#5d2a21" d="M 359.96875 262.773438 C 357.675781 259.972656 353.898438 260.800781 351.164062 262.398438 C 350.214844 262.953125 351.105469 264.40625 352.050781 263.851562 C 354.175781 262.617188 356.972656 261.789062 358.785156 264.003906 C 359.480469 264.855469 360.652344 263.617188 359.96875 262.773438 " fill-opacity="1" fill-rule="nonzero"/><path fill="#5d2a21" d="M 370.890625 256.78125 C 373.402344 254.34375 376.835938 255.71875 379.195312 257.699219 C 380.015625 258.382812 378.992188 259.691406 378.175781 259.007812 C 376.34375 257.46875 373.828125 256.246094 371.839844 258.167969 C 371.078125 258.90625 370.136719 257.507812 370.890625 256.78125 " fill-opacity="1" fill-rule="nonzero"/><path fill="#ffa664" d="M 361.660156 215.363281 C 363.71875 213.992188 365.652344 212.351562 367.398438 210.34375 C 368.269531 209.347656 367.066406 207.914062 365.886719 208.515625 C 360.707031 211.148438 355.382812 212.167969 350.246094 212.847656 C 352.484375 210.949219 354.410156 208.695312 355.816406 205.886719 C 356.367188 204.785156 355.066406 203.71875 354.03125 204.390625 C 339.660156 213.65625 311.851562 202.054688 311.042969 224.707031 C 308.949219 236.3125 320.273438 240.394531 335.726562 235.125 C 339.195312 233.941406 356.765625 237.488281 364.886719 233.78125 C 374.550781 229.375 377.578125 223.390625 379.359375 217.4375 C 379.589844 216.664062 379.027344 215.882812 378.226562 215.871094 C 372.59375 215.777344 367.015625 215.527344 361.660156 215.363281 " fill-opacity="1" fill-rule="nonzero"/><path fill="#f2a07c" d="M 334.921875 271.019531 C 336.042969 274.273438 334.121094 277.226562 332.996094 277.613281 C 331.878906 277.996094 332.800781 274.972656 331.683594 271.714844 C 330.5625 268.460938 327.824219 266.203125 328.945312 265.820312 C 330.0625 265.433594 333.804688 267.761719 334.921875 271.019531 " fill-opacity="1" fill-rule="nonzero"/><path fill="#8cce52" d="M 313.546875 309.4375 L 328.601562 298.433594 C 331.1875 294.851562 328.71875 284.121094 320.023438 281.859375 L 299.5625 278.394531 L 300.785156 303.628906 L 313.546875 309.4375 " fill-opacity="1" fill-rule="nonzero"/><path fill="#f2a07c" d="M 369.660156 363.9375 C 369.875 364.007812 370.089844 364.078125 370.304688 364.144531 C 370.339844 363.882812 370.378906 363.613281 370.410156 363.347656 C 370.359375 363.425781 368.917969 363.382812 368.691406 363.355469 C 368.097656 363.285156 366.992188 363.070312 366.597656 362.574219 C 365.539062 361.257812 367.953125 360.386719 368.808594 360.109375 C 370.070312 359.695312 369.527344 357.695312 368.257812 358.109375 C 366.554688 358.667969 364.785156 359.492188 364.359375 361.402344 C 363.953125 363.222656 365.28125 364.4375 366.855469 365.019531 C 368.167969 365.507812 371.085938 365.953125 372.078125 364.582031 C 373.152344 363.09375 370.90625 361.828125 369.660156 361.867188 C 368.332031 361.90625 368.324219 363.976562 369.660156 363.9375 " fill-opacity="1" fill-rule="nonzero"/><path fill="#fccca8" d="M 307.269531 279.992188 L 295.515625 277.542969 C 289.660156 276.3125 282.464844 286.117188 285.640625 291 L 316.03125 329.574219 L 324.675781 319.085938 L 307.125 294.679688 C 311.539062 290.460938 313.109375 283.921875 307.269531 279.992188 " fill-opacity="1" fill-rule="nonzero"/><path fill="#fccca8" d="M 399.605469 286.574219 C 404.835938 286.800781 409.84375 295.492188 406.527344 298.585938 L 383.503906 318.96875 L 374.398438 311.890625 L 393.816406 295.289062 C 392.382812 291.25 391.453125 286.578125 399.605469 286.574219 " fill-opacity="1" fill-rule="nonzero"/><path fill="#fccca8" d="M 334.039062 319.535156 C 338.09375 323.59375 329.382812 332.902344 323.644531 332.902344 C 317.90625 332.902344 313.253906 328.253906 313.253906 322.515625 C 313.253906 316.777344 318.003906 313.167969 323.644531 312.121094 C 329.382812 311.058594 325.707031 311.207031 334.039062 319.535156 " fill-opacity="1" fill-rule="nonzero"/><path fill="#fccca8" d="M 365.46875 310.132812 C 361.410156 314.195312 370.121094 323.503906 375.859375 323.503906 C 381.597656 323.503906 386.25 318.851562 386.25 313.113281 C 386.25 307.371094 381.5 303.769531 375.859375 302.722656 C 370.121094 301.65625 373.800781 301.804688 365.46875 310.132812 " fill-opacity="1" fill-rule="nonzero"/><path fill="#fccca8" d="M 373.183594 477.753906 L 352.578125 473.304688 C 352.542969 469.9375 353.058594 467.535156 354.027344 465.9375 L 349.753906 399.8125 C 349.144531 391.375 355.824219 384.195312 364.285156 384.195312 C 372.746094 384.195312 379.425781 391.375 378.816406 399.8125 L 373.183594 477.753906 " fill-opacity="1" fill-rule="nonzero"/><path fill="#fccca8" d="M 409.175781 480.339844 L 389.34375 474.675781 L 390.578125 464.636719 L 386.410156 411.574219 C 385.445312 398.179688 386.785156 381.605469 400.214844 381.605469 C 412.335938 381.605469 413.507812 389.105469 414.082031 396.304688 L 409.175781 480.339844 " fill-opacity="1" fill-rule="nonzero"/><path fill="#7ab23f" d="M 410.691406 463.199219 L 412.144531 468.292969 C 413.582031 473.324219 417.210938 477.433594 422.019531 479.496094 C 427.042969 481.648438 431.875 484.085938 430.050781 490.230469 C 427.484375 492.863281 423.761719 492.632812 420.15625 491.914062 L 388.726562 486.347656 C 383.855469 484.238281 382.78125 477.25 384.933594 474.027344 L 390.578125 464.636719 C 389.335938 470.398438 391.945312 473.785156 400.839844 473.296875 C 405.164062 472.363281 401.796875 462.050781 410.691406 463.199219 " fill-opacity="1" fill-rule="nonzero"/><path fill="#5f8e32" d="M 430.050781 490.234375 C 427.484375 492.863281 423.757812 495.398438 420.152344 494.679688 L 388.726562 486.351562 C 383.875 485.015625 383.894531 478.683594 383.894531 478.683594 C 401.5 486.703125 424.378906 493.066406 430.050781 490.234375 " fill-opacity="1" fill-rule="nonzero"/><path fill="#7fbc44" d="M 374.140625 464.5 C 376.019531 476.171875 387.359375 477.75 388.359375 479.886719 C 390.960938 482.695312 390.902344 487.046875 388.230469 489.789062 C 385.660156 492.421875 381.9375 493.574219 378.332031 492.859375 L 352.175781 487.648438 C 347.304688 485.539062 348.296875 478.550781 350.445312 475.324219 C 351.117188 471.859375 352.269531 468.703125 354.03125 465.9375 C 351.933594 469.660156 354.96875 472.386719 362.621094 474.226562 C 363.371094 474.40625 364.101562 473.765625 363.988281 473.003906 C 363.050781 466.695312 365.910156 463.4375 374.140625 464.5 " fill-opacity="1" fill-rule="nonzero"/><path fill="#5f8e32" d="M 388.230469 489.789062 C 385.660156 492.421875 381.9375 493.574219 378.332031 492.859375 L 352.175781 487.652344 C 344.746094 485.539062 348.734375 480.339844 348.734375 480.339844 C 365.605469 487.574219 383.878906 492.390625 388.230469 489.789062 " fill-opacity="1" fill-rule="nonzero"/><path fill="#b29f93" d="M 375.71875 335.421875 C 375.777344 340.90625 372.613281 345.390625 368.644531 345.4375 C 364.675781 345.484375 361.40625 341.074219 361.339844 335.589844 C 361.277344 330.105469 364.445312 325.621094 368.410156 325.574219 C 372.382812 325.527344 375.652344 329.9375 375.71875 335.421875 " fill-opacity="1" fill-rule="nonzero"/><path fill="#d2c9c3" d="M 378.054688 335.394531 C 378.117188 340.882812 374.953125 345.363281 370.984375 345.410156 C 367.011719 345.457031 363.742188 341.046875 363.679688 335.566406 C 363.613281 330.078125 366.78125 325.59375 370.75 325.550781 C 374.722656 325.5 377.988281 329.910156 378.054688 335.394531 " fill-opacity="1" fill-rule="nonzero"/><path fill="#b29f93" d="M 376.085938 335.417969 C 376.128906 339.140625 374.074219 342.179688 371.496094 342.210938 C 368.914062 342.242188 366.789062 339.25 366.746094 335.527344 C 366.703125 331.808594 368.757812 328.765625 371.339844 328.734375 C 373.917969 328.707031 376.046875 331.695312 376.085938 335.417969 " fill-opacity="1" fill-rule="nonzero"/><path fill="#d2c9c3" d="M 378.953125 335.386719 C 378.996094 339.109375 376.9375 342.148438 374.359375 342.175781 C 371.777344 342.207031 369.652344 339.214844 369.609375 335.496094 C 369.566406 331.773438 371.621094 328.734375 374.203125 328.703125 C 376.785156 328.671875 378.910156 331.664062 378.953125 335.386719 " fill-opacity="1" fill-rule="nonzero"/><path fill="#d2c9c3" d="M 376.328125 349.375 L 373.941406 349.648438 C 373.535156 349.695312 373.148438 349.414062 373.074219 349.011719 C 372.363281 345.355469 372.699219 342.195312 373.609375 339.109375 L 378.515625 338.300781 C 376.898438 342.597656 376.984375 348.164062 376.984375 348.164062 C 376.984375 348.914062 376.828125 349.285156 376.328125 349.375 " fill-opacity="1" fill-rule="nonzero"/><path fill="#193051" d="M 406.96875 375.855469 C 406.585938 375.855469 406.207031 375.851562 405.828125 375.84375 C 385.933594 375.488281 374.0625 365.972656 373.898438 349.652344 L 376.332031 349.375 C 376.480469 364.230469 387.390625 372.75 405.875 373.082031 C 406.246094 373.085938 406.613281 373.09375 406.984375 373.09375 C 444.757812 373.09375 497.910156 339.421875 500.484375 283.140625 L 503.230469 282.9375 C 500.582031 340.863281 445.859375 375.855469 406.96875 375.855469 " fill-opacity="1" fill-rule="nonzero"/><path fill="#ffb743" d="M 429.808594 357.359375 L 440.507812 357.136719 L 438.5625 339.894531 L 424.839844 342.722656 L 429.808594 357.359375 " fill-opacity="1" fill-rule="nonzero"/><path fill="#e3f8ff" d="M 522.960938 359.671875 L 595.933594 295.140625 C 607.082031 283.996094 599.332031 265.585938 593.882812 261.039062 L 587.574219 255.773438 C 580.589844 249.949219 570.222656 250.808594 564.296875 257.707031 L 502.40625 326.734375 L 522.960938 359.671875 " fill-opacity="1" fill-rule="nonzero"/><path fill="#e3f8ff" d="M 442.621094 375.855469 L 522.960938 359.671875 L 502.40625 326.734375 L 438.5625 339.894531 L 442.621094 375.855469 " fill-opacity="1" fill-rule="nonzero"/><path fill="#ffc895" d="M 382.121094 329.695312 L 402.453125 333.453125 L 410.257812 344.496094 L 424.839844 342.722656 L 429.8125 357.359375 L 412.59375 359.449219 L 394.804688 358.234375 L 377.859375 344.964844 C 374.335938 342.203125 373.183594 337.375 375.078125 333.320312 C 376.324219 330.648438 379.21875 329.160156 382.121094 329.695312 " fill-opacity="1" fill-rule="nonzero"/></svg>